<svg id="visual" opacity="0.2" viewBox="0 0 900 600" width="900" height="600" xmlns="http://www.w3.org/2000/svg" xmlns:xlink="http://www.w3.org/1999/xlink" version="1.1"><rect width="900" height="600" fill="#FFF"></rect><g><g transform="translate(405 274)"><path d="M56.7 -60C66.8 -46.5 63.9 -23.3 59.3 -4.6C54.7 14.1 48.6 28.2 38.4 47.1C28.2 66 14.1 89.6 -6.7 96.2C-27.4 102.9 -54.9 92.6 -72.8 73.7C-90.8 54.9 -99.2 27.4 -93 6.2C-86.8 -15 -66 -30.1 -48 -43.6C-30.1 -57 -15 -69 4.1 -73.1C23.3 -77.2 46.5 -73.5 56.7 -60Z" fill="#DD2D4A"></path></g><g transform="translate(718 123)"><path d="M33.7 -36C42.5 -25 47.6 -12.5 45.6 -2C43.6 8.5 34.6 17 25.8 22.9C17 28.9 8.5 32.1 0 32.1C-8.5 32.1 -16.9 28.7 -25.5 22.8C-34 16.9 -42.7 8.5 -42.7 0C-42.8 -8.5 -34.2 -17.1 -25.6 -28.1C-17.1 -39.1 -8.5 -52.5 2 -54.5C12.5 -56.5 25 -47 33.7 -36Z" fill="#DD2D4A"></path></g><g transform="translate(200 434)"><path d="M52.4 -53.5C62.1 -42.7 60.2 -21.3 56.1 -4.1C52 13.2 45.7 26.3 36 39.6C26.3 52.9 13.2 66.2 -3.2 69.4C-19.6 72.6 -39.2 65.7 -49.4 52.4C-59.7 39.2 -60.6 19.6 -58.7 1.9C-56.9 -15.9 -52.3 -31.8 -42 -42.6C-31.8 -53.4 -15.9 -59.2 2.7 -61.9C21.3 -64.6 42.7 -64.3 52.4 -53.5Z" fill="#DD2D4A"></path></g><g transform="translate(711 462)"><path d="M48.9 -46.2C61.8 -36 69.6 -18 68.7 -0.9C67.8 16.2 58.2 32.4 45.3 41.7C32.4 51.1 16.2 53.6 -0.8 54.4C-17.9 55.3 -35.8 54.5 -44.5 45.1C-53.3 35.8 -53 17.9 -52.7 0.3C-52.4 -17.3 -52.1 -34.6 -43.4 -44.9C-34.6 -55.1 -17.3 -58.4 0.3 -58.7C18 -59.1 36 -56.5 48.9 -46.2Z" fill="#DD2D4A"></path></g></g></svg>